
<svg xmlns="http://www.w3.org/2000/svg" version="1.1" xmlns:xlink="http://www.w3.org/1999/xlink" preserveAspectRatio="none" x="0px" y="0px" width="543px" height="443px" viewBox="0 0 543 443">
<defs>
<g id="Layer5_0_FILL">
<path fill="#FFFFFF" stroke="none" d="
M 267.95 296.1
Q 267.4658203125 291.2 257.6 274.2 247.7833984375 257.2564453125 231.65 259.6 215.5189453125 261.9408203125 210.15 271.2 204.780078125 280.508203125 203.65 291.1 202.50859375 301.731640625 203.6 312.45 204.753125 323.181640625 213.05 328.5 221.3486328125 333.8068359375 235.5 335.55 249.644140625 337.353515625 256.85 330.7 264.0560546875 324.041796875 266.2 315.25 268.3830078125 306.455078125 268.4 303.75 268.481640625 301.0529296875 267.95 296.1 Z"/>
</g>

<g id="Layer5_1_FILL">
<path fill="#666666" stroke="none" d="
M 151 324.9
Q 142.95 322 131.55 322 120.15 322 112.1 324.9 106.25 327.05 104.65 329.8 104.05 330.85 104.05 332 104.05 336.15 112.1 339.05 120.15 342 131.55 342 142.95 342 151 339.05 158.9 336.2 159.05 332.15
L 159.05 332
Q 159.05 327.85 151 324.9 Z"/>
</g>

<g id="Layer2_0_FILL">
<path fill="#B042FF" stroke="none" d="
M 393.8 145.8
Q 397.65 100.95 368.65 66.35 339.6 31.9 294.75 28.05 249.85 24.15 215.4 53.1 180.85 82.15 177 127 173.1 171.9 202.1 206.35 231.1 240.9 276 244.8 320.85 248.65 355.35 219.6 389.9 190.7 393.8 145.8 Z"/>
</g>

<g id="Layer1_0_FILL">
<path fill="#FFFFFF" stroke="none" d="
M 212.25 294.55
L 211 295.4 211 317.55 264.55 317.55 264.55 297.05 262.35 297.05
Q 261.339453125 298.6482421875 257.7 299.95 250.7 302.55 240.85 302.55 231.0013671875 302.5548828125 222.1 300.7 213.23984375 298.8451171875 212.25 294.55 Z"/>
</g>

<g id="Layer1_1_FILL">
<path fill="#CCCCCC" stroke="none" d="
M 185.95 383
Q 185.8669921875 384.9314453125 186.75 395.45 228.61875 409.5345703125 259 394.55 256.0015625 383.6341796875 244.7 370.65 226.1263671875 349.3845703125 206.3 361.8 186.47578125 374.2654296875 185.95 383 Z"/>

<path fill="#FFFFFF" stroke="none" d="
M 231.15 331.75
Q 215.437109375 328.6345703125 203.45 332.95 191.50234375 337.31875 187.1 344.35 182.758203125 351.4283203125 184.1 371.55 185.1859375 387.2634765625 186.75 395.45 185.8669921875 384.9314453125 185.95 383 186.47578125 374.2654296875 206.3 361.8 226.1263671875 349.3845703125 244.7 370.65 256.0015625 383.6341796875 259 394.55 262.5705078125 385.1361328125 262.1 380.75 260.997265625 369.5466796875 261 361.15 261.05 352.75 253.95 343.85 246.90546875 334.9041015625 231.15 331.75 Z"/>
</g>

<g id="Layer0_0_FILL">
<path fill="#B042FF" stroke="none" d="
M 173.8 170
Q 170.9 180.15 171.4 197.1 184.45 179.25 198.45 193.1
L 198.45 68.6
Q 157.6 105.85 149.55 128.15 167.5 117.8 172.2 126.7 163.15 147 159.25 173.2 176.7 159.8 173.8 170 Z"/>
</g>

<g id="Layer0_1_FILL">
<path fill="#B042FF" stroke="none" d="
M 207.6 215.85
Q 211.25 227.3 203.1 231.7 223.3 223.05 231.75 229.2
L 193.2 181.15
Q 183.35 186.1 183.45 218.3 200.8 190.3 207.6 215.85 Z"/>
</g>

<g id="Layer0_2_FILL">
<path fill="#B042FF" stroke="none" d="
M 419.15 126.15
Q 413.1 105.85 372.25 68.6
L 372.25 193.1
Q 386.25 179.25 396.3 198.1 399.8 180.15 396.9 170 394 159.8 409.45 173.2 407.55 147 398.5 126.7 403.2 117.8 419.15 126.15 Z"/>
</g>

<g id="Layer0_3_FILL">
<path fill="#B042FF" stroke="none" d="
M 363.1 215.85
Q 369.9 190.3 388.25 216.3 387.35 186.1 377.5 181.15
L 338.95 229.2
Q 347.4 223.05 364.6 230.7 359.45 227.3 363.1 215.85 Z"/>
</g>

<g id="Layer0_4_FILL">
<path fill="#B042FF" stroke="none" d="
M 345.9 45.3
Q 323.8 28.4 342.8 19.15 325.05 6.65 296.6 27.45 280.45 -0.05 236.3 7.4 262.65 19.3 269.6 38.7
L 345.9 45.3 Z"/>
</g>

<path id="Layer5_0_1_STROKES" stroke="#000000" stroke-width="1" stroke-linejoin="round" stroke-linecap="round" fill="none" d="
M 257.625 274.225
Q 247.7833984375 257.2564453125 231.65 259.6 215.5189453125 261.9408203125 210.15 271.225 204.780078125 280.508203125 203.65 291.125 202.50859375 301.731640625 203.625 312.45 204.753125 323.181640625 213.05 328.5 221.3486328125 333.8068359375 235.5 335.575 249.644140625 337.353515625 256.85 330.7 264.0560546875 324.041796875 266.225 315.25 268.3830078125 306.455078125 268.425 303.75 268.481640625 301.0529296875 267.975 296.125 267.4658203125 291.2 257.625 274.225 Z"/>

<path id="Layer5_1_1_STROKES" stroke="#000000" stroke-width="1" stroke-linejoin="round" stroke-linecap="round" fill="none" d="
M 212.4526550292969 298.7499755859375
Q 213.92120971679688 296.22052612304685 219.29061279296874 294.2429565429687 226.67927856445314 291.575537109375 237.14273071289062 291.575537109375 247.6061828613281 291.575537109375 254.9948486328125 294.2429565429687 262.3835144042969 296.95636596679685 262.3835144042969 300.77353515625
L 262.3835144042969 300.9115051269531"/>

<path id="Layer4_0_1_STROKES" stroke="#000000" stroke-width="2" stroke-linejoin="round" stroke-linecap="round" fill="none" d="
M 237.55049819946294 281.9626220703125
Q 238.75112533569336 282.0518310546875 240.1009315490723 281.6776611328125 238.53150863647465 281.8063232421875 237.42609024047852 281.8528564453125 237.15679321289065 282.009765625 236.43110275268555 282.4624755859375 236.40190353393558 282.4884521484375 236.33160400390625 282.5234375 236.23210525512695 282.5843994140625 236.1034072875977 282.671337890625
L 236.0039085388184 282.7322998046875 236.01580963134768 282.749267578125
Q 235.8579124450684 282.8621826171875 235.65891494750974 282.9841064453125 236.67618103027348 285.85419921875 238.52818527221683 287.2101318359375 240.8659202575684 288.9881591796875 245.33090820312503 289.0666015625 249.50168991088867 289.1312255859375 251.939478302002 288.0095947265625 254.18366622924805 286.9499755859375 255.45846862792973 284.57587890625 257.2371307373047 281.22998046875 248.4910682678223 281.2677001953125 246.03252258300785 281.27802734375 241.1944488525391 281.61416015625 240.64173965454103 281.6374267578125 240.1009315490723 281.6776611328125 242.98874740600587 280.9272216796875 246.61387863159183 278.2532958984375 251.19829406738285 274.91884765625 252.29361114501955 272.897314453125
M 236.4895011901856 282.4105224609375
L 236.55980072021487 282.37553710937505 236.61819915771486 282.323583984375
Q 236.55645029246807 282.3760420799255 236.4895011901856 282.4105224609375 Z
M 236.4895011901856 282.4105224609375
L 236.43110275268555 282.4624755859375
M 230.92144927978518 277.581884765625
Q 230.6734642028809 276.0114013671875 230.53992385864262 273.3195556640625
M 233.50633850097654 282.28134765625
Q 231.35030288696294 280.4243408203125 230.92144927978518 277.581884765625
M 235.34630355834963 282.8764404296875
L 233.50633850097654 282.28134765625
M 235.34630355834963 282.8764404296875
Q 235.49880371093752 282.82343749999995 235.61020355224616 282.779443359375 235.68050308227544 282.7444580078125 235.7508026123047 282.70947265625 236.15627059936526 281.9354248046875 237.42609024047852 281.8528564453125
M 235.7508026123047 282.70947265625
Q 236.1964019775391 282.53349609375 236.61819915771486 282.323583984375
M 235.65891494750974 282.9841064453125
L 235.34630355834963 282.8764404296875
Q 231.75770645141603 284.2503173828125 225.05060653686525 284.7612060546875 222.1464614868164 284.947509765625 217.12018432617185 285.2857421875 213.517333984375 285.6251953125 213.09996490478517 286.382275390625 212.24253158569343 287.9992919921875 213.02897262573242 288.5120849609375 213.7029067993164 288.932080078125 216.42645950317387 288.9615478515625 221.70916366577148 289.0565185546875 225.44168090820312 288.023046875 230.2482032775879 286.6954345703125 235.65891494750974 282.9841064453125 Z
M 235.65891494750974 282.9841064453125
Q 235.64050979614262 282.8902587890625 235.61020355224616 282.779443359375
M 235.7508026123047 282.70947265625
Q 235.6989082336426 282.8383056640625 235.65891494750974 282.9841064453125"/>

<path id="Layer3_0_1_STROKES" stroke="#000000" stroke-width="14" stroke-linejoin="round" stroke-linecap="round" fill="none" d="
M 319.95 204.55
Q 324.4 242.25 326.7 264.8 328.95 287.3 330.4 298.85 331.85 310.45 333.3 321.45 333.7 324.65 334.45 330 334.7 331.75 335 333.75 336.75 346.3 339.95 367.9
M 254.7 194.65
Q 247.65 236.6 243.85 272 240.05 307.35 239.35 309.9"/>

<path id="Layer2_0_1_STROKES" stroke="#000000" stroke-width="1" stroke-linejoin="round" stroke-linecap="round" fill="none" d="
M 393.8 145.8
Q 389.9 190.7 355.35 219.6 320.85 248.65 276 244.8 231.1 240.9 202.1 206.35 173.1 171.9 177 127 180.85 82.15 215.4 53.1 249.85 24.15 294.75 28.05 339.6 31.9 368.65 66.35 397.65 100.95 393.8 145.8 Z"/>

<path id="Layer1_0_1_STROKES" stroke="#000000" stroke-width="1" stroke-linejoin="round" stroke-linecap="round" fill="none" d="
M 262.35 297.05
Q 261.339453125 298.6482421875 257.7 299.95 250.7 302.55 240.85 302.55 231.0013671875 302.5548828125 222.125 300.7 213.23984375 298.8451171875 212.25 294.55"/>

<path id="Layer1_1_1_STROKES" stroke="#000000" stroke-width="1" stroke-linejoin="round" stroke-linecap="round" fill="none" d="
M 381.5 396.95
Q 383.0640625 388.7634765625 384.125 373.075 385.491796875 352.9283203125 381.125 345.875 376.74765625 338.81875 364.775 334.475 352.812890625 330.1345703125 337.075 333.275 321.34453125 336.4041015625 314.3 345.35 307.2 354.25 307.25 362.65 307.252734375 371.0466796875 306.125 382.25 305.6794921875 386.6361328125 309.25 396.05 339.63125 411.0345703125 381.5 396.95 Z
M 381.5 396.95
Q 382.3830078125 386.4314453125 382.275 384.5 381.77421875 375.7654296875 361.95 363.325 342.1236328125 350.8845703125 323.55 372.175 312.2484375 385.1341796875 309.25 396.05"/>

<path id="Layer0_0_1_STROKES" stroke="#000000" stroke-width="1" stroke-linejoin="round" stroke-linecap="round" fill="none" d="
M 198.45 68.6
Q 157.6 105.85 149.55 128.15 167.5 117.8 172.2 126.7 163.15 147 159.25 173.2 176.7 159.8 173.8 170 170.9 180.15 171.4 197.1 184.45 179.25 198.45 193.1"/>

<path id="Layer0_1_1_STROKES" stroke="#000000" stroke-width="1" stroke-linejoin="round" stroke-linecap="round" fill="none" d="
M 193.2 181.15
Q 183.35 186.1 183.45 218.3 200.8 190.3 207.6 215.85 211.25 227.3 203.1 231.7 223.3 223.05 231.75 229.2"/>

<path id="Layer0_2_1_STROKES" stroke="#000000" stroke-width="1" stroke-linejoin="round" stroke-linecap="round" fill="none" d="
M 372.25 68.6
Q 413.1 105.85 419.15 126.15 403.2 117.8 398.5 126.7 407.55 147 409.45 173.2 394 159.8 396.9 170 399.8 180.15 396.3 198.1 386.25 179.25 372.25 193.1"/>

<path id="Layer0_3_1_STROKES" stroke="#000000" stroke-width="1" stroke-linejoin="round" stroke-linecap="round" fill="none" d="
M 377.5 181.15
Q 387.35 186.1 388.25 216.3 369.9 190.3 363.1 215.85 359.45 227.3 364.6 230.7 347.4 223.05 338.95 229.2"/>

<path id="Layer0_4_1_STROKES" stroke="#000000" stroke-width="1" stroke-linejoin="round" stroke-linecap="round" fill="none" d="
M 269.6 38.7
Q 262.65 19.3 236.3 7.4 280.45 -0.05 296.6 27.45 325.05 6.65 342.8 19.15 323.8 28.4 345.9 45.3"/>
</defs>

<g transform="matrix( 1, 0, 0, 1, 0,4.2) ">
<use xlink:href="#Layer5_0_FILL"/>

<use xlink:href="#Layer5_0_1_STROKES"/>
</g>

<g transform="matrix( 0.9178466796875, 0, 0, 0.9197998046875, 116.4,-4.6) ">
<use xlink:href="#Layer5_1_FILL"/>

<use xlink:href="#Layer5_1_1_STROKES" transform="matrix( 1.0894927978515625, 0, 0, 1.087188720703125, -126.8,5) "/>
</g>

<g transform="matrix( -0.8220062255859375, 0.18017578125, -0.2380218505859375, -0.33935546875, 511.1,361.25) ">
<use xlink:href="#Layer4_0_1_STROKES" transform="matrix( -1.0544281005859375, -0.5598297119140625, 0.73956298828125, -2.5540924072265625, 271.7,1208.75) "/>
</g>

<g transform="matrix( 1, 0, 0, 1, 0,0) ">
<use xlink:href="#Layer3_0_1_STROKES"/>
</g>

<g transform="matrix( 1, 0, 0, 1, 0,0) ">
<use xlink:href="#Layer2_0_FILL"/>

<use xlink:href="#Layer2_0_1_STROKES"/>
</g>

<g transform="matrix( 1, 0, 0, 1, 0,4.2) ">
<use xlink:href="#Layer1_0_FILL"/>

<use xlink:href="#Layer1_0_1_STROKES"/>
</g>

<g transform="matrix( -1, 0, 0, 1, 568.25,1.5) ">
<use xlink:href="#Layer1_1_FILL"/>

<use xlink:href="#Layer1_1_1_STROKES" transform="matrix( -1, 0, 0, 1, 568.25,-1.5) "/>
</g>

<g transform="matrix( 1, 0, 0, 1, 0,2) ">
<use xlink:href="#Layer0_0_FILL"/>

<use xlink:href="#Layer0_0_1_STROKES"/>
</g>

<g transform="matrix( 1, 0, 0, 1, 0,2) ">
<use xlink:href="#Layer0_1_FILL"/>

<use xlink:href="#Layer0_1_1_STROKES"/>
</g>

<g transform="matrix( 1, 0, 0, 1, 0,2) ">
<use xlink:href="#Layer0_2_FILL"/>

<use xlink:href="#Layer0_2_1_STROKES"/>
</g>

<g transform="matrix( 1, 0, 0, 1, 0,2) ">
<use xlink:href="#Layer0_3_FILL"/>

<use xlink:href="#Layer0_3_1_STROKES"/>
</g>

<g transform="matrix( 1, 0, 0, 1, 0,0) ">
<use xlink:href="#Layer0_4_FILL"/>

<use xlink:href="#Layer0_4_1_STROKES"/>
</g>
</svg>
